<svg width="100" height="100" viewBox="0 0 100 100" fill="none" xmlns="http://www.w3.org/2000/svg">
  <style>
    .bracket-color { fill: #003366; } /* Dark Blue */
    .text-color { fill: #003366; font-family: Arial, sans-serif; font-weight: bold; font-size: 20px; } /* Dark Blue */
    .checkmark-color { fill: #FFD700; } /* Gold/Yellow */
  </style>
  
  <!-- Brackets -->
  <path class="bracket-color" d="M25 20 V80 H30 V20 H25 Z"/>
  <path class="bracket-color" d="M75 20 V80 H70 V20 H75 Z"/>
  <path class="bracket-color" d="M27 20 H40 V25 H27 V20 Z"/>
  <path class="bracket-color" d="M27 75 H40 V80 H27 V75 Z"/>
  <path class="bracket-color" d="M60 20 H73 V25 H60 V20 Z"/>
  <path class="bracket-color" d="M60 75 H73 V80 H60 V75 Z"/>

  <!-- Text HDM -->
  <text x="50" y="65" text-anchor="middle" class="text-color">HDM</text>
  
  <!-- Checkmarks -->
  <path class="checkmark-color" d="M40 30 L45 35 L55 25 L52 22 L45 29 L43 27 Z" transform="translate(0, 5)"/>
  <path class="checkmark-color" d="M45 35 L50 40 L60 30 L57 27 L50 34 L48 32 Z" transform="translate(0, 0)"/>
</svg>
